<svg width="24" height="24" viewBox="0 0 24 24" fill="none" xmlns="http://www.w3.org/2000/svg">
<path d="M6.70757 3.29279C6.52004 3.10532 6.26573 3 6.00057 3C5.73541 3 5.4811 3.10532 5.29357 3.29279L4.00057 4.58579L3.70757 4.29279C3.51897 4.11063 3.26636 4.00983 3.00417 4.01211C2.74197 4.01439 2.49116 4.11956 2.30575 4.30497C2.12034 4.49038 2.01517 4.74119 2.0129 5.00339C2.01062 5.26558 2.11141 5.51818 2.29357 5.70679L3.29357 6.70679C3.4811 6.89426 3.73541 6.99957 4.00057 6.99957C4.26573 6.99957 4.52004 6.89426 4.70757 6.70679L6.70757 4.70679C6.89504 4.51926 7.00036 4.26495 7.00036 3.99979C7.00036 3.73462 6.89504 3.48031 6.70757 3.29279ZM21.0036 16.9928H10.0006L9.88357 16.9998C9.63047 17.0299 9.39842 17.1555 9.23483 17.351C9.07124 17.5464 8.98846 17.797 9.0034 18.0514C9.01833 18.3058 9.12986 18.545 9.3152 18.7199C9.50054 18.8949 9.74569 18.9925 10.0006 18.9928H21.0036L21.1206 18.9868C21.3755 18.9588 21.6099 18.834 21.7754 18.6381C21.9409 18.4422 22.0248 18.1902 22.0098 17.9342C21.9947 17.6782 21.8819 17.4377 21.6947 17.2625C21.5074 17.0873 21.26 16.9908 21.0036 16.9928ZM21.0036 10.9998H10.0006L9.88357 11.0068C9.63047 11.0369 9.39842 11.1625 9.23483 11.358C9.07124 11.5534 8.98846 11.804 9.0034 12.0584C9.01833 12.3128 9.12986 12.552 9.3152 12.7269C9.50054 12.9019 9.74569 12.9995 10.0006 12.9998H21.0036L21.1206 12.9928C21.3737 12.9627 21.6057 12.8371 21.7693 12.6416C21.9329 12.4462 22.0157 12.1956 22.0007 11.9412C21.9858 11.6867 21.8743 11.4476 21.6889 11.2726C21.5036 11.0977 21.2584 11.0001 21.0036 10.9998ZM21.0036 4.99979H10.0006L9.88357 5.00679C9.63047 5.03689 9.39842 5.1625 9.23483 5.35795C9.07124 5.55341 8.98846 5.80395 9.0034 6.05839C9.01833 6.31283 9.12986 6.55197 9.3152 6.72694C9.50054 6.90191 9.74569 6.9995 10.0006 6.99979H21.0036L21.1206 6.99279C21.3737 6.96268 21.6057 6.83707 21.7693 6.64162C21.9329 6.44617 22.0157 6.19562 22.0007 5.94118C21.9858 5.68674 21.8743 5.4476 21.6889 5.27263C21.5036 5.09767 21.2584 5.00007 21.0036 4.99979ZM6.70757 16.2928C6.52004 16.1053 6.26573 16 6.00057 16C5.73541 16 5.4811 16.1053 5.29357 16.2928L4.00057 17.5858L3.70757 17.2928C3.51897 17.1106 3.26636 17.0098 3.00417 17.0121C2.74197 17.0144 2.49116 17.1196 2.30575 17.305C2.12034 17.4904 2.01517 17.7412 2.0129 18.0034C2.01062 18.2656 2.11141 18.5182 2.29357 18.7068L3.29357 19.7068C3.4811 19.8943 3.73541 19.9996 4.00057 19.9996C4.26573 19.9996 4.52004 19.8943 4.70757 19.7068L6.70757 17.7068C6.89504 17.5193 7.00036 17.265 7.00036 16.9998C7.00036 16.7346 6.89504 16.4803 6.70757 16.2928ZM5.29357 9.79279C5.48217 9.61063 5.73477 9.50983 5.99697 9.51211C6.25917 9.51439 6.50998 9.61956 6.69539 9.80497C6.8808 9.99038 6.98597 10.2412 6.98824 10.5034C6.99052 10.7656 6.88973 11.0182 6.70757 11.2068L4.70757 13.2068C4.52004 13.3943 4.26573 13.4996 4.00057 13.4996C3.73541 13.4996 3.4811 13.3943 3.29357 13.2068L2.29357 12.2068C2.19806 12.1145 2.12188 12.0042 2.06947 11.8822C2.01706 11.7602 1.98947 11.629 1.98832 11.4962C1.98717 11.3634 2.01247 11.2317 2.06275 11.1088C2.11303 10.9859 2.18728 10.8743 2.28117 10.7804C2.37507 10.6865 2.48672 10.6122 2.60962 10.562C2.73251 10.5117 2.86419 10.4864 2.99697 10.4875C3.12975 10.4887 3.26097 10.5163 3.38297 10.5687C3.50498 10.6211 3.61532 10.6973 3.70757 10.7928L4.00057 11.0858L5.29357 9.79279Z" fill="black"/>
</svg>
