<svg width="26" height="24" viewBox="0 0 26 24" fill="none" xmlns="http://www.w3.org/2000/svg">
<path d="M1 1H8.2C9.47304 1 10.6939 1.50571 11.5941 2.40589C12.4943 3.30606 13 4.52696 13 5.8V22.6C13 21.6452 12.6207 20.7295 11.9456 20.0544C11.2705 19.3793 10.3548 19 9.4 19H1V1Z" fill="white" stroke="#7C9ED9" stroke-width="2" stroke-linecap="round" stroke-linejoin="round"/>
<path d="M25 1H17.8C16.527 1 15.3061 1.50571 14.4059 2.40589C13.5057 3.30606 13 4.52696 13 5.8V22.6C13 21.6452 13.3793 20.7295 14.0544 20.0544C14.7295 19.3793 15.6452 19 16.6 19H25V1Z" fill="white" stroke="#7C9ED9" stroke-width="2" stroke-linecap="round" stroke-linejoin="round"/>
</svg>
