<svg width="26" height="27" viewBox="0 0 26 27" fill="none" xmlns="http://www.w3.org/2000/svg">
<g clip-path="url(#clip0_97_5194)">
<path d="M12.9503 1.1084C12.0917 1.1084 11.2682 1.45858 10.6611 2.08191C10.054 2.70523 9.71289 3.55065 9.71289 4.43216V13.2955C9.71289 14.1771 10.054 15.0225 10.6611 15.6458C11.2682 16.2691 12.0917 16.6193 12.9503 16.6193C13.8089 16.6193 14.6323 16.2691 15.2395 15.6458C15.8466 15.0225 16.1877 14.1771 16.1877 13.2955V4.43216C16.1877 3.55065 15.8466 2.70523 15.2395 2.08191C14.6323 1.45858 13.8089 1.1084 12.9503 1.1084Z" stroke="black" stroke-width="2" stroke-linecap="round" stroke-linejoin="round"/>
<path d="M20.5043 11.0791V13.2949C20.5043 15.3518 19.7084 17.3244 18.2918 18.7789C16.8752 20.2333 14.9538 21.0504 12.9504 21.0504C10.947 21.0504 9.0256 20.2333 7.60897 18.7789C6.19234 17.3244 5.39648 15.3518 5.39648 13.2949V11.0791" stroke="black" stroke-width="2" stroke-linecap="round" stroke-linejoin="round"/>
<path d="M12.9492 21.0508V25.4825" stroke="black" stroke-width="2" stroke-linecap="round" stroke-linejoin="round"/>
<path d="M8.63281 25.4824H17.2658" stroke="black" stroke-width="2" stroke-linecap="round" stroke-linejoin="round"/>
</g>
<defs>
<clipPath id="clip0_97_5194">
<rect width="25.8991" height="26.5901" fill="white"/>
</clipPath>
</defs>
</svg>
