<svg width="29" height="29" viewBox="0 0 29 29" fill="none" xmlns="http://www.w3.org/2000/svg">
<path d="M13.1822 4.63574H4.48493C3.82588 4.63574 3.19383 4.89755 2.72782 5.36356C2.2618 5.82957 2 6.46163 2 7.12067V24.5152C2 25.1742 2.2618 25.8062 2.72782 26.2723C3.19383 26.7383 3.82588 27.0001 4.48493 27.0001H21.8794C22.5385 27.0001 23.1705 26.7383 23.6365 26.2723C24.1025 25.8062 24.3643 25.1742 24.3643 24.5152V15.8179" stroke="#7C9ED9" stroke-width="3" stroke-linecap="round" stroke-linejoin="round"/>
<path d="M22.5009 2.77197C22.9952 2.27769 23.6656 2 24.3646 2C25.0637 2 25.734 2.27769 26.2283 2.77197C26.7226 3.26625 27.0003 3.93664 27.0003 4.63566C27.0003 5.33468 26.7226 6.00507 26.2283 6.49936L14.4249 18.3028L9.45508 19.5452L10.6975 14.5754L22.5009 2.77197Z" stroke="#7C9ED9" stroke-width="3" stroke-linecap="round" stroke-linejoin="round"/>
</svg>
