<svg width="23" height="25" viewBox="0 0 23 25" fill="none" xmlns="http://www.w3.org/2000/svg">
<path d="M21.9 11.705L12.019 21.8868C10.8085 23.1341 9.16666 23.8349 7.45476 23.8349C5.74285 23.8349 4.10106 23.1341 2.89055 21.8868C1.68005 20.6394 1 18.9477 1 17.1837C1 15.4196 1.68005 13.7279 2.89055 12.4805L12.7716 2.29873C13.5786 1.46717 14.6731 1 15.8144 1C16.9557 1 18.0502 1.46717 18.8572 2.29873C19.6642 3.1303 20.1176 4.25814 20.1176 5.43415C20.1176 6.61016 19.6642 7.738 18.8572 8.56957L8.9654 18.7514C8.5619 19.1672 8.01464 19.4007 7.444 19.4007C6.87337 19.4007 6.3261 19.1672 5.9226 18.7514C5.5191 18.3356 5.29242 17.7717 5.29242 17.1837C5.29242 16.5957 5.5191 16.0317 5.9226 15.616L15.051 6.22077" stroke="black" stroke-width="2" stroke-linecap="round" stroke-linejoin="round"/>
</svg>
