<svg width="25" height="23" viewBox="0 0 25 23" fill="none" xmlns="http://www.w3.org/2000/svg">
<path d="M1 1H7.86667C9.08077 1 10.2451 1.4823 11.1036 2.3408C11.9621 3.1993 12.4444 4.36368 12.4444 5.57778V21.6C12.4444 20.6894 12.0827 19.8161 11.4388 19.1723C10.795 18.5284 9.92169 18.1667 9.01111 18.1667H1V1Z" fill="white" stroke="#7C9ED9" stroke-width="2" stroke-linecap="round" stroke-linejoin="round"/>
<path d="M23.8898 1H17.0231C15.809 1 14.6446 1.4823 13.7861 2.3408C12.9276 3.1993 12.4453 4.36368 12.4453 5.57778V21.6C12.4453 20.6894 12.807 19.8161 13.4509 19.1723C14.0948 18.5284 14.9681 18.1667 15.8786 18.1667H23.8898V1Z" fill="white" stroke="#7C9ED9" stroke-width="2" stroke-linecap="round" stroke-linejoin="round"/>
</svg>
